<svg xmlns="http://www.w3.org/2000/svg" width="128" height="128" viewBox="0 0 128 128" xml:space="preserve">
  <path fill="#A67C52" d="M4 80.1679688V47.8320313l60-34.640625 60 34.640625v32.3359375l-60 34.640625z"/>
  <path fill="#42210B" d="m64 17.8120117 56 32.331665v27.7126465l-56 32.331665-56-32.331665V50.1436768l56-32.3316651m0-9.2376709L0 45.5247803v36.9504395l64 36.9504395 64-36.9504395V45.5247803L64 8.5743408z"/>
  <linearGradient id="a" gradientUnits="userSpaceOnUse" x1="119.9848785" y1="91.7128143" x2="48" y2="91.7128143">
    <stop offset="0" style="stop-color:#9181ba"/>
    <stop offset="1" style="stop-color:#00b3ff"/>
  </linearGradient>
  <path fill="url(#a)" d="m48 110.1880188 16 9.2376099 55.9848785-32.3228913V68.627533L112 64l-8 4.6188049L96 64l-16 9.2376022-8-4.6187973-16 9.2376023 8 4.6188049-16 9.2376022z"/>
  <linearGradient id="b" gradientUnits="userSpaceOnUse" x1="119.984375" y1="91.7128296" x2="48" y2="91.7128296">
    <stop offset="0" style="stop-color:#0069ff"/>
    <stop offset="1" style="stop-color:#504497"/>
  </linearGradient>
  <path fill="url(#b)" d="m96 73.2376709 4 2.3093262c1.2382813.7145996 2.6191406 1.0717773 4 1.0717773s2.7617188-.3571777 4-1.0717773l3.984375-2.300293v9.2374268L64 110.1881104l-8-4.6188965V96.331543l12-6.9281006c2.4746094-1.4290771 4-4.0700684 4-6.9282227 0-1.4290771-.3808594-2.803833-1.0722656-4L72 77.8564453l4 2.3093262c1.2382813.7144775 2.6191406 1.0717773 4 1.0717773s2.7617188-.3572998 4-1.0717773l12-6.9281006M112 64l-8 4.6187744L96 64l-16 9.2375488-8-4.6187744-16 9.2376709 8 4.6187744-16 9.2375488v18.4752197l16 9.2376709 55.984375-32.322876V68.6275635L112 64z"/>
  <linearGradient id="c" gradientUnits="userSpaceOnUse" x1="128" y1="45.5247917" x2="0" y2="45.5247917">
    <stop offset="0" style="stop-color:#7dc610"/>
    <stop offset=".9581006" style="stop-color:#05bc97"/>
    <stop offset="1" style="stop-color:#006837"/>
  </linearGradient>
  <path fill="url(#c)" d="m0 54.762394 48 27.7128181 16-9.2376099-8-4.6187973 15.9848785-9.228878L80 64l16-9.237606 8 4.6275329 8-4.6275329 7.9848785 4.6275329L128 54.762394v-9.2376023L64 8.5743742 0 45.5247917z"/>
  <linearGradient id="d" gradientUnits="userSpaceOnUse" x1="0" y1="45.5247803" x2="128" y2="45.5247803">
    <stop offset="0" style="stop-color:#7a8010"/>
    <stop offset="1" style="stop-color:#006837"/>
  </linearGradient>
  <path fill="url(#d)" d="m64 17.8120117 56 32.331543-.0078125.0043945-3.9804688-2.3071289c-1.2402344-.7188721-2.6269531-1.0783691-4.0117188-1.0783691-1.3828125 0-2.765625.3583984-4.0058594 1.0750732L104 50.1479492l-3.9941406-2.3104248C98.765625 47.1207275 97.3828125 46.7624512 96 46.7624512c-1.3808594 0-2.7617188.3572998-4 1.0717773l-12.0078125 6.9326172-4.0195313-2.3117676c-1.234375-.7102051-2.6113281-1.0651855-3.9882813-1.0651855-1.3808594 0-2.7617188.3572998-4 1.0718994L52 61.6906738c-2.4746094 1.4290771-4 4.0700684-4 6.9282227 0 1.4289551.3808594 2.8037109 1.0722656 3.9998779L48 73.2375488 8 50.1436768l56-32.3316651m0-9.2376709L0 45.5247803v9.2376709l48 27.7127686 16-9.2376709-8-4.6187744 15.984375-9.2288818L80 64l16-9.2375488 8 4.6274414 8-4.6274414 7.984375 4.6274414L128 54.7624512v-9.2376709L64 8.5743408z"/>
  <path fill="none" d="m48 100.9504166-8-4.618805V77.8564072l7.9999619 4.6188278z"/>
  <path fill="#42210B" d="m64 73.2375488-8 4.6188965v9.2375488l8-4.6187744v-9.2376709z"/>
  <path fill="#8C6239" d="M47.9999619 82.475235 48 100.9504166 8 77.8564072V59.3811989zM72 68.6188049l8 4.6187973V64l-8.0548172-4.6100731zM96 54.762394l-.0895996 9.2893333L104 68.6188049v-9.237606zm16 0V64l7.9848785 4.6100769v-9.22015z"/>
  <path d="M47.9999809 91.7127991 64 100.9504166v18.4752121l-16.0000191-9.2376175z" opacity=".18"/>
  <path opacity=".08" d="m64 100.9504166 55.9848785-32.3403397v18.4926605L64 119.4256287z"/>
  <path fill="#A67C52" d="M39.9848824 59.3899269 32 54.762394v-9.2376023l48-27.7128124 8 4.6188011v9.2376042z"/>
  <path fill="#8C6239" d="m40 50.1435928 48-27.7128124v9.2376042L40.0151176 59.3899269z"/>
  <path fill="#42210B" d="m32 54.762394 8.0151176 4.6275329L40 50.1435928l-8-4.6188011z"/>
  <linearGradient id="e" gradientUnits="userSpaceOnUse" x1="64" y1="20" x2="104" y2="20">
    <stop offset="0" style="stop-color:#7dc610"/>
    <stop offset="1" style="stop-color:#05bc97"/>
  </linearGradient>
  <circle fill="url(#e)" cx="84" cy="20" r="20"/>
  <linearGradient id="f" gradientUnits="userSpaceOnUse" x1="64" y1="20" x2="104" y2="20">
    <stop offset="0" style="stop-color:#7a8010"/>
    <stop offset="1" style="stop-color:#006837"/>
  </linearGradient>
  <path fill="url(#f)" d="M84 8c6.6171875 0 12 5.3831787 12 12s-5.3828125 12-12 12-12-5.3831787-12-12S77.3828125 8 84 8m0-8C72.9550781 0 64 8.9543457 64 20s8.9550781 20 20 20 20-8.9543457 20-20S95.0449219 0 84 0z"/>
  <linearGradient id="g" gradientUnits="userSpaceOnUse" x1="33.8564072" y1="102.0222168" x2="30.1219025" y2="108.4905624">
    <stop offset="0" style="stop-color:#000;stop-opacity:.5"/>
    <stop offset="1" style="stop-color:#000;stop-opacity:0"/>
  </linearGradient>
  <path fill="url(#g)" d="M64 119.4256287V128L0 91.099678v-8.6244659z"/>
  <linearGradient id="h" gradientUnits="userSpaceOnUse" x1="94.1435928" y1="102.0222168" x2="97.8780975" y2="108.4905624">
    <stop offset="0" style="stop-color:#000;stop-opacity:.5"/>
    <stop offset="1" style="stop-color:#000;stop-opacity:0"/>
  </linearGradient>
  <path fill="url(#h)" d="M64 119.4256287V128l64-36.900322v-8.6244659z"/>
</svg>
