<?xml version="1.0" encoding="utf-8"?>
<!-- Generator: Adobe Illustrator 24.0.1, SVG Export Plug-In . SVG Version: 6.00 Build 0)  -->
<svg version="1.1" id="Lager_1" xmlns="http://www.w3.org/2000/svg" xmlns:xlink="http://www.w3.org/1999/xlink" x="0px" y="0px"
	 viewBox="0 0 128 128" style="enable-background:new 0 0 128 128;" xml:space="preserve">
<style type="text/css">
	.st0{fill:#FFFFFF;}
	.st1{fill:none;stroke:#000000;stroke-width:0.25;stroke-miterlimit:10;}
	.st2{fill:none;stroke:#FF0000;stroke-width:0.25;stroke-miterlimit:10;}
	.st3{display:none;}
	.st4{display:inline;fill:#00FFFF;}
	.st5{display:none;opacity:0.42;}
	.st6{opacity:0.42;}
	.st7{display:inline;}
	.st8{display:inline;clip-path:url(#SVGID_2_);}
	.st9{clip-path:url(#SVGID_4_);}
	.st10{fill:none;stroke:#93278F;stroke-width:5.000000e-02;stroke-miterlimit:10;}
	.st11{display:none;fill:none;stroke:#FF0000;stroke-width:5.000000e-02;stroke-miterlimit:10;}
	.st12{display:none;fill:none;stroke:#0000FF;stroke-width:5.000000e-02;stroke-miterlimit:10;}
	.st13{display:none;fill:none;stroke:#000000;stroke-width:5.000000e-02;stroke-miterlimit:10;}
	.st14{fill:#A67C52;}
	.st15{fill:#42210B;}
	.st16{display:inline;fill:#A67C52;}
	.st17{display:inline;fill:#42210B;}
	.st18{display:none;opacity:0.69;}
	.st19{display:inline;fill:#0000FF;}
	.st20{display:inline;fill:#22B573;}
	.st21{display:inline;fill:#006837;}
	.st22{fill:url(#SVGID_5_);}
	.st23{fill:url(#SVGID_6_);}
	.st24{display:none;fill:#004337;}
	.st25{fill:#004337;}
	.st26{fill:url(#SVGID_7_);}
	.st27{fill:url(#SVGID_8_);}
	.st28{fill:#A67C52;stroke:#42210B;stroke-linejoin:round;stroke-miterlimit:10;}
	.st29{fill:none;}
	.st30{fill:#8C6239;}
	.st31{opacity:0.18;}
	.st32{opacity:8.000000e-02;}
	.st33{fill:url(#SVGID_9_);}
	.st34{fill:url(#SVGID_10_);}
	.st35{fill:url(#SVGID_11_);}
	.st36{fill:url(#SVGID_12_);}
	.st37{fill:url(#SVGID_13_);}
	.st38{fill:url(#SVGID_14_);}
	.st39{fill:url(#SVGID_15_);}
	.st40{fill:url(#SVGID_16_);}
	.st41{fill:url(#SVGID_17_);}
	.st42{fill:url(#SVGID_18_);}
	.st43{fill:url(#SVGID_19_);}
	.st44{fill:url(#SVGID_20_);}
	.st45{fill:url(#SVGID_21_);}
	.st46{fill:url(#SVGID_22_);}
	.st47{fill:url(#SVGID_23_);}
	.st48{fill:url(#SVGID_24_);}
	.st49{fill:url(#SVGID_25_);}
	.st50{fill:url(#SVGID_26_);}
	.st51{fill:url(#SVGID_27_);}
	.st52{fill:url(#SVGID_28_);}
</style>
<g>
	<polygon class="st14" points="4,80.2 4,47.8 64,13.2 124,47.8 124,80.2 64,114.8 	"/>
	<path class="st15" d="M64,17.8l56,32.3v27.7l-56,32.3L8,77.9V50.1L64,17.8 M64,8.6l-64,37v37l64,37l64-37v-37L64,8.6L64,8.6z"/>
</g>
<g>
	<linearGradient id="SVGID_2_" gradientUnits="userSpaceOnUse" x1="119.9849" y1="91.7128" x2="48" y2="91.7128">
		<stop  offset="0" style="stop-color:#9181BA"/>
		<stop  offset="1" style="stop-color:#00B3FF"/>
	</linearGradient>
	<polygon style="fill:url(#SVGID_2_);" points="48,110.2 64,119.4 120,87.1 120,68.6 112,64 104,68.6 96,64 80,73.2 72,68.6 
		56,77.9 64,82.5 48,91.7 	"/>
	<linearGradient id="SVGID_4_" gradientUnits="userSpaceOnUse" x1="119.9844" y1="91.7128" x2="48" y2="91.7128">
		<stop  offset="0" style="stop-color:#0069FF"/>
		<stop  offset="1" style="stop-color:#504497"/>
	</linearGradient>
	<path style="fill:url(#SVGID_4_);" d="M96,73.2l4,2.3c1.2,0.7,2.6,1.1,4,1.1s2.8-0.4,4-1.1l4-2.3v9.2l-48,27.7l-8-4.6v-9.2l12-6.9
		c2.5-1.4,4-4.1,4-6.9c0-1.4-0.4-2.8-1.1-4l1.1-0.6l4,2.3c1.2,0.7,2.6,1.1,4,1.1s2.8-0.4,4-1.1L96,73.2 M112,64l-8,4.6L96,64
		l-16,9.2l-8-4.6l-16,9.2l8,4.6l-16,9.2v18.5l16,9.2l56-32.3V68.6L112,64L112,64z"/>
</g>
<g>
	<linearGradient id="SVGID_5_" gradientUnits="userSpaceOnUse" x1="128" y1="45.5248" x2="1.076842e-09" y2="45.5248">
		<stop  offset="0" style="stop-color:#7DC610"/>
		<stop  offset="0.9581" style="stop-color:#05BC97"/>
		<stop  offset="1" style="stop-color:#006837"/>
	</linearGradient>
	<polygon class="st22" points="0,54.8 48,82.5 64,73.2 56,68.6 72,59.4 80,64 96,54.8 104,59.4 112,54.8 120,59.4 128,54.8 
		128,45.5 64,8.6 0,45.5 	"/>
	<linearGradient id="SVGID_6_" gradientUnits="userSpaceOnUse" x1="0" y1="45.5248" x2="128" y2="45.5248">
		<stop  offset="0" style="stop-color:#7A8010"/>
		<stop  offset="1" style="stop-color:#006837"/>
	</linearGradient>
	<path class="st23" d="M64,17.8l56,32.3l0,0l-4-2.3c-1.2-0.7-2.6-1.1-4-1.1c-1.4,0-2.8,0.4-4,1.1l-4,2.3l-4-2.3
		c-1.2-0.7-2.6-1.1-4-1.1c-1.4,0-2.8,0.4-4,1.1l-12,6.9l-4-2.3c-1.2-0.7-2.6-1.1-4-1.1c-1.4,0-2.8,0.4-4,1.1l-16,9.2
		c-2.5,1.4-4,4.1-4,6.9c0,1.4,0.4,2.8,1.1,4L48,73.2L8,50.1L64,17.8 M64,8.6l-64,37v9.2l48,27.7l16-9.2l-8-4.6l16-9.2l8,4.6l16-9.2
		l8,4.6l8-4.6l8,4.6l8-4.6v-9.2L64,8.6L64,8.6z"/>
</g>
<polygon class="st29" points="48,101 40,96.3 40,77.9 48,82.5 "/>
<g>
	<polygon class="st15" points="64,73.2 56,77.9 56,87.1 64,82.5 64,73.2 	"/>
</g>
<polygon class="st30" points="48,82.5 48,101 8,77.9 8,59.4 "/>
<polygon class="st30" points="72,68.6 80,73.2 80,64 71.9,59.4 "/>
<polygon class="st30" points="96,54.8 95.9,64.1 104,68.6 104,59.4 "/>
<polygon class="st30" points="112,54.8 112,64 120,68.6 120,59.4 "/>
<g class="st31">
	<polygon points="48,91.7 64,101 64,119.4 48,110.2 	"/>
</g>
<polygon class="st32" points="64,101 120,68.6 120,87.1 64,119.4 "/>
<polygon class="st14" points="40,59.4 32,54.8 32,45.5 80,17.8 88,22.4 88,31.7 "/>
<polygon class="st30" points="40,50.1 88,22.4 88,31.7 40,59.4 "/>
<polygon class="st15" points="32,54.8 40,59.4 40,50.1 32,45.5 "/>
<g>
	<linearGradient id="SVGID_7_" gradientUnits="userSpaceOnUse" x1="64" y1="20" x2="104" y2="20">
		<stop  offset="0" style="stop-color:#7DC610"/>
		<stop  offset="1" style="stop-color:#05BC97"/>
	</linearGradient>
	<circle class="st26" cx="84" cy="20" r="20"/>
	<g>
		<linearGradient id="SVGID_8_" gradientUnits="userSpaceOnUse" x1="64" y1="20" x2="104" y2="20">
			<stop  offset="0" style="stop-color:#7A8010"/>
			<stop  offset="1" style="stop-color:#006837"/>
		</linearGradient>
		<path class="st27" d="M84,8c6.6,0,12,5.4,12,12s-5.4,12-12,12s-12-5.4-12-12S77.4,8,84,8 M84,0C73,0,64,9,64,20s9,20,20,20
			s20-9,20-20S95,0,84,0L84,0z"/>
	</g>
</g>
<linearGradient id="SVGID_9_" gradientUnits="userSpaceOnUse" x1="33.8564" y1="102.0222" x2="30.1219" y2="108.4906">
	<stop  offset="0" style="stop-color:#000000;stop-opacity:0.5"/>
	<stop  offset="1" style="stop-color:#000000;stop-opacity:0"/>
</linearGradient>
<polygon class="st33" points="64,119.4 64,128 0,91.1 0,82.5 "/>
<linearGradient id="SVGID_10_" gradientUnits="userSpaceOnUse" x1="94.1436" y1="102.0222" x2="97.8781" y2="108.4906">
	<stop  offset="0" style="stop-color:#000000;stop-opacity:0.5"/>
	<stop  offset="1" style="stop-color:#000000;stop-opacity:0"/>
</linearGradient>
<polygon class="st34" points="64,119.4 64,128 128,91.1 128,82.5 "/>
</svg>
